<!DOCTYPE svg PUBLIC "-//W3C//DTD SVG 1.1//EN" "http://www.w3.org/Graphics/SVG/1.1/DTD/svg11.dtd">


<svg width="127px" height="127px" viewBox="-17.76 -17.76 83.52 83.52" id="Layer_2" data-name="Layer 2" xmlns="http://www.w3.org/2000/svg" fill="#000000" transform="rotate(45)matrix(1, 0, 0, 1, 0, 0)" stroke="#000000" stroke-width="1.9200000000000004">

<g id="SVGRepo_bgCarrier" stroke-width="0" transform="translate(7.919999999999998,7.919999999999998), scale(0.67)">

<rect x="-17.76" y="-17.76" width="83.52" height="83.52" rx="41.76" fill="#07b8f2" strokewidth="0"/>

</g>

<g id="SVGRepo_tracerCarrier" stroke-linecap="round" stroke-linejoin="round"/>

<g id="SVGRepo_iconCarrier">

<defs>

<style>.cls-1{fill:none;stroke:#eee2e2;stroke-linecap:round;stroke-linejoin:round;}</style>

</defs>

<path class="cls-1" d="M40.5,5.5H7.5a2,2,0,0,0-2,2v33a2,2,0,0,0,2,2h33a2,2,0,0,0,2-2V7.5A2,2,0,0,0,40.5,5.5Z"/>

<line class="cls-1" x1="10.55" y1="10.5" x2="17.27" y2="37.5"/>

<line class="cls-1" x1="24" y1="10.5" x2="17.27" y2="37.5"/>

<line class="cls-1" x1="24" y1="10.5" x2="30.73" y2="37.5"/>

<line class="cls-1" x1="37.45" y1="10.5" x2="30.73" y2="37.5"/>

</g>

</svg>